# xmcd CD database file
#
# Track frame offsets:
#	150
#	22670
#	50732
#	82212
#	113565
#	149522
#	170042
#	202692
#
# Disc length: 3148 seconds
#
# Revision: 0
# Processed by: cddbd v1.5.2PL0 Copyright (c) Steve Scherf et al.
# Submitted via: CDex 1.70beta2
#
DISCID=670c4a08
DTITLE=Darcy Hepner - Darcy Hepner
DYEAR=1998
DGENRE=Jazz
TTITLE0=Thanks For the Ride
TTITLE1=November 14
TTITLE2=Insomnia
TTITLE3=Top
TTITLE4=At Sea
TTITLE5=Ballade
TTITLE6=Seascape With Figures
TTITLE7=Blues for Lefty
EXTD=YEAR: 1998
EXTT0=
EXTT1=
EXTT2=
EXTT3=
EXTT4=
EXTT5=
EXTT6=
EXTT7=
PLAYORDER=
